# xmcd
#
# Track frame offsets: 
#        150
#        13695
#        32737
#        49645
#        62407
#        89182
#        105722
#        123782
#        139595
#        156207
#        171932
#        188235
#        204962
#        222815
#        238825
#        255480
#        273062
#        294835
#
# Disc length: 4192 seconds
#
# Revision: 4
# Processed by: cddbd v1.5.2PL0 Copyright (c) Steve Scherf et al.
# Submitted via: ExactAudioCopy v0.99pb3
#
DISCID=f6105e12
DTITLE=Various Artist - The Disco Years, Must Be The Music Volume 5
DYEAR=1900
DGENRE=Disco
TTITLE0=Evelyn "Champange" King - Shame 
TTITLE1=Cheryl Lynn - Star Love 
TTITLE2=Gloria Gaynor - Honeybee 
TTITLE3=5000 Volts - I'm On Fire
TTITLE4=Donna Summer - I Feel Love
TTITLE5=Claudja Barry - Boogie Woogie Dancin' Shoes 
TTITLE6=Dee D. Jackson - Automatic Lover
TTITLE7=Beautiful Band - Boogie Motion 
TTITLE8=Heatwave - Boogie Nights 
TTITLE9=Edwin Starr - H.A.P.P.Y. Radio
TTITLE10=Secret Weapon - Must Be the Music 
TTITLE11=Diana Ross - Upside Down
TTITLE12=High Fashion - Feelin' Lucky Lately 
TTITLE13=S.O.S. Band - Take Your Time (Do It Right), PT. 1
TTITLE14=Nu Shooz - I Can't Wait 
TTITLE15=Jenny Burton - Remember What You Like 
TTITLE16=Wish - Touch Me (All Night Long) 
TTITLE17=Hot Chocolate - Mindless Boogie 
EXTD=
EXTT0=
EXTT1=
EXTT2=
EXTT3=
EXTT4=
EXTT5=
EXTT6=
EXTT7=
EXTT8=
EXTT9=
EXTT10=
EXTT11=
EXTT12=
EXTT13=
EXTT14=
EXTT15=
EXTT16=
EXTT17=
PLAYORDER=
